<?xml version="1.0" standalone="no"?>
<!DOCTYPE svg PUBLIC "-//W3C//DTD SVG 20010904//EN"
 "http://www.w3.org/TR/2001/REC-SVG-20010904/DTD/svg10.dtd">
<svg version="1.0" xmlns="http://www.w3.org/2000/svg"
 width="512.000000pt" height="512.000000pt" viewBox="0 0 512.000000 512.000000"
 preserveAspectRatio="xMidYMid meet">

<g transform="translate(0.000000,512.000000) scale(0.100000,-0.100000)"
fill="#000000" stroke="none">
<path d="M1783 4776 c-140 -34 -290 -150 -351 -271 -51 -102 -63 -157 -69
-327 l-6 -157 -541 -3 -541 -3 -61 -28 c-77 -36 -145 -104 -181 -182 l-28 -60
0 -1405 0 -1405 28 -80 c85 -242 281 -421 544 -497 l78 -23 1905 0 1905 0 78
23 c84 24 195 76 266 125 118 81 227 227 278 372 l28 80 0 1405 0 1405 -28 61
c-36 77 -104 145 -182 181 l-60 28 -541 3 -541 3 -6 157 c-8 230 -47 334 -166
453 -72 72 -174 128 -269 148 -80 17 -1470 14 -1539 -3z m1524 -330 c63 -30
107 -86 122 -157 6 -27 11 -99 11 -159 l0 -110 -880 0 -880 0 0 110 c0 60 5
132 11 159 15 71 59 127 122 157 l52 24 695 0 695 0 52 -24z m1482 -760 c9
-11 11 -114 9 -403 l-4 -388 -27 -80 c-83 -250 -296 -428 -552 -465 -53 -7
-235 -10 -535 -8 l-455 3 -5 152 c-5 165 -10 180 -74 227 -27 21 -40 21 -573
24 -532 2 -547 2 -587 -18 -74 -37 -80 -54 -86 -230 l-5 -155 -455 -3 c-300
-2 -482 1 -535 8 -256 37 -469 215 -552 465 l-27 80 -4 388 c-2 289 0 392 9
403 17 21 4441 21 4458 0z m-1889 -1481 l0 -225 -340 0 -340 0 0 225 0 225
340 0 340 0 0 -225z m-2508 24 c84 -67 240 -143 363 -176 l100 -27 523 -4 522
-3 0 -123 c0 -135 10 -163 73 -210 28 -21 36 -21 587 -21 551 0 559 0 587 21
63 47 73 75 73 210 l0 123 523 4 c552 4 563 5 707 55 85 30 192 86 263 140 35
27 70 52 76 56 9 6 11 -149 9 -646 l-3 -653 -32 -66 c-60 -121 -188 -218 -331
-248 -38 -8 -567 -11 -1875 -11 -2006 0 -1873 -4 -2004 62 -78 38 -164 127
-201 205 l-27 58 -3 653 c-1 358 0 652 3 652 3 0 33 -23 67 -51z"/>
</g>
</svg>
